<svg viewBox="0 0 64 64" width="64" height="64" xmlns="http://www.w3.org/2000/svg">
  <!-- Black rounded background -->
  <rect x="4" y="4" width="56" height="56" rx="12" fill="#000"/>
  <!-- White grid + spiral -->
  <g stroke="#fff" fill="none" stroke-opacity="0.95">
    <g stroke-width="1">
      <path d="M16 16h32M16 24h32M16 32h32M16 40h32M16 48h32"/>
      <path d="M16 16v32M24 16v32M32 16v32M40 16v32M48 16v32"/>
    </g>
    <path d="M20 44c0-10 8-18 18-18 6 0 10 4 10 10 0 8-8 14-16 14-10 0-16-8-16-18 0-12 10-22 22-22"
          stroke-width="3" stroke-linecap="round"/>
  </g>
</svg>
